<mxfile host="app.diagrams.net" modified="2023-02-11T06:46:15.675Z" agent="5.0 (Windows)" etag="ER4wJ4ARbSXdfmH2092a" version="20.8.19" type="github">
  <diagram name="第 1 页" id="Xr0ofUqRnAPhq-VrsgXs">
    <mxGraphModel dx="2019" dy="2260" grid="1" gridSize="10" guides="1" tooltips="1" connect="1" arrows="1" fold="1" page="1" pageScale="1" pageWidth="827" pageHeight="1169" math="0" shadow="0">
      <root>
        <mxCell id="0" />
        <mxCell id="1" parent="0" />
        <mxCell id="7RwwjaFvHcJdRhYBYeB7-4" value="" style="edgeStyle=orthogonalEdgeStyle;rounded=0;orthogonalLoop=1;jettySize=auto;html=1;" edge="1" parent="1" source="7RwwjaFvHcJdRhYBYeB7-1" target="7RwwjaFvHcJdRhYBYeB7-3">
          <mxGeometry relative="1" as="geometry" />
        </mxCell>
        <mxCell id="7RwwjaFvHcJdRhYBYeB7-6" value="" style="edgeStyle=orthogonalEdgeStyle;rounded=0;orthogonalLoop=1;jettySize=auto;html=1;" edge="1" parent="1" source="7RwwjaFvHcJdRhYBYeB7-1" target="7RwwjaFvHcJdRhYBYeB7-5">
          <mxGeometry relative="1" as="geometry" />
        </mxCell>
        <mxCell id="7RwwjaFvHcJdRhYBYeB7-62" value="" style="edgeStyle=orthogonalEdgeStyle;rounded=0;orthogonalLoop=1;jettySize=auto;html=1;fontSize=22;" edge="1" parent="1" source="7RwwjaFvHcJdRhYBYeB7-1" target="7RwwjaFvHcJdRhYBYeB7-61">
          <mxGeometry relative="1" as="geometry" />
        </mxCell>
        <mxCell id="7RwwjaFvHcJdRhYBYeB7-1" value="持久化" style="whiteSpace=wrap;html=1;rounded=1;glass=0;sketch=1;fillWeight=4;hachureGap=8;hachureAngle=45;strokeColor=#6c8ebf;strokeWidth=2;fontFamily=Helvetica;fontSize=24;fontColor=default;fillColor=#dae8fc;" vertex="1" parent="1">
          <mxGeometry x="390" y="480" width="120" height="60" as="geometry" />
        </mxCell>
        <mxCell id="7RwwjaFvHcJdRhYBYeB7-14" value="" style="edgeStyle=orthogonalEdgeStyle;rounded=0;orthogonalLoop=1;jettySize=auto;html=1;fontSize=22;" edge="1" parent="1" source="7RwwjaFvHcJdRhYBYeB7-3" target="7RwwjaFvHcJdRhYBYeB7-13">
          <mxGeometry relative="1" as="geometry" />
        </mxCell>
        <mxCell id="7RwwjaFvHcJdRhYBYeB7-47" style="edgeStyle=orthogonalEdgeStyle;rounded=0;orthogonalLoop=1;jettySize=auto;html=1;entryX=0;entryY=0.5;entryDx=0;entryDy=0;fontSize=22;" edge="1" parent="1" source="7RwwjaFvHcJdRhYBYeB7-3" target="7RwwjaFvHcJdRhYBYeB7-12">
          <mxGeometry relative="1" as="geometry" />
        </mxCell>
        <mxCell id="7RwwjaFvHcJdRhYBYeB7-3" value="AOF" style="whiteSpace=wrap;html=1;rounded=1;glass=0;sketch=1;fillWeight=4;hachureGap=8;hachureAngle=45;strokeColor=#6c8ebf;strokeWidth=2;fontFamily=Helvetica;fontSize=24;fontColor=default;fillColor=#dae8fc;" vertex="1" parent="1">
          <mxGeometry x="390" y="250" width="120" height="60" as="geometry" />
        </mxCell>
        <mxCell id="7RwwjaFvHcJdRhYBYeB7-42" value="" style="edgeStyle=orthogonalEdgeStyle;rounded=0;orthogonalLoop=1;jettySize=auto;html=1;fontSize=22;" edge="1" parent="1" source="7RwwjaFvHcJdRhYBYeB7-5" target="7RwwjaFvHcJdRhYBYeB7-41">
          <mxGeometry relative="1" as="geometry" />
        </mxCell>
        <mxCell id="7RwwjaFvHcJdRhYBYeB7-48" style="edgeStyle=orthogonalEdgeStyle;rounded=0;orthogonalLoop=1;jettySize=auto;html=1;entryX=0.5;entryY=1;entryDx=0;entryDy=0;fontSize=22;" edge="1" parent="1" source="7RwwjaFvHcJdRhYBYeB7-5" target="7RwwjaFvHcJdRhYBYeB7-12">
          <mxGeometry relative="1" as="geometry" />
        </mxCell>
        <mxCell id="7RwwjaFvHcJdRhYBYeB7-53" value="" style="edgeStyle=orthogonalEdgeStyle;rounded=0;orthogonalLoop=1;jettySize=auto;html=1;fontSize=22;" edge="1" parent="1" source="7RwwjaFvHcJdRhYBYeB7-5" target="7RwwjaFvHcJdRhYBYeB7-51">
          <mxGeometry relative="1" as="geometry" />
        </mxCell>
        <mxCell id="7RwwjaFvHcJdRhYBYeB7-5" value="RDB" style="whiteSpace=wrap;html=1;rounded=1;glass=0;sketch=1;fillWeight=4;hachureGap=8;hachureAngle=45;strokeColor=#6c8ebf;strokeWidth=2;fontFamily=Helvetica;fontSize=24;fontColor=default;fillColor=#dae8fc;" vertex="1" parent="1">
          <mxGeometry x="750" y="480" width="120" height="60" as="geometry" />
        </mxCell>
        <mxCell id="7RwwjaFvHcJdRhYBYeB7-49" style="edgeStyle=orthogonalEdgeStyle;rounded=0;orthogonalLoop=1;jettySize=auto;html=1;fontSize=22;" edge="1" parent="1" source="7RwwjaFvHcJdRhYBYeB7-12" target="7RwwjaFvHcJdRhYBYeB7-50">
          <mxGeometry relative="1" as="geometry">
            <mxPoint x="1020" y="280" as="targetPoint" />
          </mxGeometry>
        </mxCell>
        <mxCell id="7RwwjaFvHcJdRhYBYeB7-12" value="区别" style="whiteSpace=wrap;html=1;rounded=1;glass=0;sketch=1;fillWeight=4;hachureGap=8;hachureAngle=45;strokeColor=#6c8ebf;strokeWidth=2;fontFamily=Helvetica;fontSize=24;fontColor=default;fillColor=#dae8fc;" vertex="1" parent="1">
          <mxGeometry x="750" y="250" width="120" height="60" as="geometry" />
        </mxCell>
        <mxCell id="7RwwjaFvHcJdRhYBYeB7-34" value="" style="edgeStyle=orthogonalEdgeStyle;rounded=0;orthogonalLoop=1;jettySize=auto;html=1;fontSize=22;" edge="1" parent="1" source="7RwwjaFvHcJdRhYBYeB7-13" target="7RwwjaFvHcJdRhYBYeB7-33">
          <mxGeometry relative="1" as="geometry" />
        </mxCell>
        <mxCell id="7RwwjaFvHcJdRhYBYeB7-63" style="edgeStyle=orthogonalEdgeStyle;rounded=0;orthogonalLoop=1;jettySize=auto;html=1;entryX=1;entryY=0.5;entryDx=0;entryDy=0;fontSize=22;" edge="1" parent="1" source="7RwwjaFvHcJdRhYBYeB7-13" target="7RwwjaFvHcJdRhYBYeB7-15">
          <mxGeometry relative="1" as="geometry">
            <Array as="points">
              <mxPoint x="330" y="-47" />
              <mxPoint x="330" y="-47" />
            </Array>
          </mxGeometry>
        </mxCell>
        <mxCell id="7RwwjaFvHcJdRhYBYeB7-13" value="写入AOF过程" style="whiteSpace=wrap;html=1;fontSize=24;fillColor=#dae8fc;strokeColor=#6c8ebf;rounded=1;glass=0;sketch=1;fillWeight=4;hachureGap=8;hachureAngle=45;strokeWidth=2;" vertex="1" parent="1">
          <mxGeometry x="370" y="-80" width="160" height="70" as="geometry" />
        </mxCell>
        <mxCell id="7RwwjaFvHcJdRhYBYeB7-37" style="edgeStyle=orthogonalEdgeStyle;rounded=0;orthogonalLoop=1;jettySize=auto;html=1;fontSize=22;" edge="1" parent="1" source="7RwwjaFvHcJdRhYBYeB7-15" target="7RwwjaFvHcJdRhYBYeB7-35">
          <mxGeometry relative="1" as="geometry" />
        </mxCell>
        <mxCell id="7RwwjaFvHcJdRhYBYeB7-15" value="AOF_BUFFER" style="whiteSpace=wrap;html=1;fontSize=24;fillColor=#dae8fc;strokeColor=#6c8ebf;rounded=1;glass=0;sketch=1;fillWeight=4;hachureGap=8;hachureAngle=45;strokeWidth=2;" vertex="1" parent="1">
          <mxGeometry x="50" y="-80" width="170" height="65" as="geometry" />
        </mxCell>
        <mxCell id="7RwwjaFvHcJdRhYBYeB7-25" style="edgeStyle=orthogonalEdgeStyle;rounded=0;orthogonalLoop=1;jettySize=auto;html=1;entryX=0.5;entryY=0;entryDx=0;entryDy=0;entryPerimeter=0;fontSize=24;" edge="1" parent="1" source="7RwwjaFvHcJdRhYBYeB7-26" target="7RwwjaFvHcJdRhYBYeB7-28">
          <mxGeometry relative="1" as="geometry" />
        </mxCell>
        <mxCell id="7RwwjaFvHcJdRhYBYeB7-39" value="" style="edgeStyle=orthogonalEdgeStyle;rounded=0;orthogonalLoop=1;jettySize=auto;html=1;fontSize=22;" edge="1" parent="1" source="7RwwjaFvHcJdRhYBYeB7-26" target="7RwwjaFvHcJdRhYBYeB7-38">
          <mxGeometry relative="1" as="geometry" />
        </mxCell>
        <mxCell id="7RwwjaFvHcJdRhYBYeB7-26" value="AOF文件" style="whiteSpace=wrap;html=1;rounded=1;glass=0;sketch=1;fillWeight=4;hachureGap=8;hachureAngle=45;strokeColor=#6c8ebf;strokeWidth=2;fontFamily=Helvetica;fontSize=24;fontColor=default;fillColor=#dae8fc;" vertex="1" parent="1">
          <mxGeometry x="60" y="87.5" width="160" height="65" as="geometry" />
        </mxCell>
        <mxCell id="7RwwjaFvHcJdRhYBYeB7-27" value="&lt;font style=&quot;font-size: 26px;&quot;&gt;write&lt;/font&gt;" style="text;html=1;align=center;verticalAlign=middle;resizable=0;points=[];autosize=1;strokeColor=none;fillColor=none;" vertex="1" parent="1">
          <mxGeometry x="50" y="17.5" width="80" height="40" as="geometry" />
        </mxCell>
        <mxCell id="7RwwjaFvHcJdRhYBYeB7-28" value="" style="fontColor=#0066CC;verticalAlign=top;verticalLabelPosition=bottom;labelPosition=center;align=center;html=1;outlineConnect=0;fillColor=#CCCCCC;strokeColor=#6881B3;gradientColor=none;gradientDirection=north;strokeWidth=2;shape=mxgraph.networks.storage;fontSize=24;" vertex="1" parent="1">
          <mxGeometry x="90" y="267.5" width="100" height="100" as="geometry" />
        </mxCell>
        <mxCell id="7RwwjaFvHcJdRhYBYeB7-29" value="磁盘" style="text;html=1;align=center;verticalAlign=middle;resizable=0;points=[];autosize=1;strokeColor=none;fillColor=none;fontSize=24;" vertex="1" parent="1">
          <mxGeometry x="-10" y="307.5" width="70" height="40" as="geometry" />
        </mxCell>
        <mxCell id="7RwwjaFvHcJdRhYBYeB7-30" value="&lt;span style=&quot;color: rgb(0, 0, 0); font-family: Helvetica; font-size: 26px; font-style: normal; font-variant-ligatures: normal; font-variant-caps: normal; font-weight: 400; letter-spacing: normal; orphans: 2; text-align: center; text-indent: 0px; text-transform: none; widows: 2; word-spacing: 0px; -webkit-text-stroke-width: 0px; background-color: rgb(251, 251, 251); text-decoration-thickness: initial; text-decoration-style: initial; text-decoration-color: initial; float: none; display: inline !important;&quot;&gt;fsync&lt;/span&gt;" style="text;whiteSpace=wrap;html=1;fontSize=26;" vertex="1" parent="1">
          <mxGeometry x="40" y="197.5" width="90" height="50" as="geometry" />
        </mxCell>
        <mxCell id="7RwwjaFvHcJdRhYBYeB7-32" style="edgeStyle=orthogonalEdgeStyle;rounded=0;orthogonalLoop=1;jettySize=auto;html=1;entryX=0.5;entryY=0;entryDx=0;entryDy=0;fontSize=24;" edge="1" parent="1" target="7RwwjaFvHcJdRhYBYeB7-26">
          <mxGeometry relative="1" as="geometry">
            <Array as="points">
              <mxPoint x="140" y="7.5" />
              <mxPoint x="140" y="7.5" />
            </Array>
            <mxPoint x="140" y="-12.5" as="sourcePoint" />
          </mxGeometry>
        </mxCell>
        <mxCell id="7RwwjaFvHcJdRhYBYeB7-33" value="对比MySQL的binlog/redolog写文件" style="whiteSpace=wrap;html=1;fontSize=24;fillColor=#dae8fc;strokeColor=#6c8ebf;rounded=1;glass=0;sketch=1;fillWeight=4;hachureGap=8;hachureAngle=45;strokeWidth=2;" vertex="1" parent="1">
          <mxGeometry x="327.5" y="-370" width="245" height="90" as="geometry" />
        </mxCell>
        <mxCell id="7RwwjaFvHcJdRhYBYeB7-35" value="参数控制" style="whiteSpace=wrap;html=1;fontSize=24;fillColor=#dae8fc;strokeColor=#6c8ebf;rounded=1;glass=0;sketch=1;fillWeight=4;hachureGap=8;hachureAngle=45;strokeWidth=2;" vertex="1" parent="1">
          <mxGeometry x="-220" y="-77.5" width="120" height="60" as="geometry" />
        </mxCell>
        <mxCell id="7RwwjaFvHcJdRhYBYeB7-38" value="AOF重新" style="whiteSpace=wrap;html=1;fontSize=24;fillColor=#dae8fc;strokeColor=#6c8ebf;rounded=1;glass=0;sketch=1;fillWeight=4;hachureGap=8;hachureAngle=45;strokeWidth=2;" vertex="1" parent="1">
          <mxGeometry x="-230" y="90" width="120" height="60" as="geometry" />
        </mxCell>
        <mxCell id="7RwwjaFvHcJdRhYBYeB7-40" value="文件满了" style="text;html=1;align=center;verticalAlign=middle;resizable=0;points=[];autosize=1;strokeColor=none;fillColor=none;fontSize=22;" vertex="1" parent="1">
          <mxGeometry x="-70" y="77.5" width="110" height="40" as="geometry" />
        </mxCell>
        <mxCell id="7RwwjaFvHcJdRhYBYeB7-44" value="" style="edgeStyle=orthogonalEdgeStyle;rounded=0;orthogonalLoop=1;jettySize=auto;html=1;fontSize=22;" edge="1" parent="1" source="7RwwjaFvHcJdRhYBYeB7-41" target="7RwwjaFvHcJdRhYBYeB7-43">
          <mxGeometry relative="1" as="geometry" />
        </mxCell>
        <mxCell id="7RwwjaFvHcJdRhYBYeB7-46" value="" style="edgeStyle=orthogonalEdgeStyle;rounded=0;orthogonalLoop=1;jettySize=auto;html=1;fontSize=22;" edge="1" parent="1" source="7RwwjaFvHcJdRhYBYeB7-41" target="7RwwjaFvHcJdRhYBYeB7-45">
          <mxGeometry relative="1" as="geometry" />
        </mxCell>
        <mxCell id="7RwwjaFvHcJdRhYBYeB7-41" value="生成RDB文件" style="whiteSpace=wrap;html=1;fontSize=24;fillColor=#dae8fc;strokeColor=#6c8ebf;rounded=1;glass=0;sketch=1;fillWeight=4;hachureGap=8;hachureAngle=45;strokeWidth=2;" vertex="1" parent="1">
          <mxGeometry x="1040" y="480" width="120" height="60" as="geometry" />
        </mxCell>
        <mxCell id="7RwwjaFvHcJdRhYBYeB7-43" value="save阻塞" style="whiteSpace=wrap;html=1;fontSize=24;fillColor=#dae8fc;strokeColor=#6c8ebf;rounded=1;glass=0;sketch=1;fillWeight=4;hachureGap=8;hachureAngle=45;strokeWidth=2;" vertex="1" parent="1">
          <mxGeometry x="950" y="630" width="130" height="70" as="geometry" />
        </mxCell>
        <mxCell id="7RwwjaFvHcJdRhYBYeB7-45" value="basave不阻塞" style="whiteSpace=wrap;html=1;fontSize=24;fillColor=#dae8fc;strokeColor=#6c8ebf;rounded=1;glass=0;sketch=1;fillWeight=4;hachureGap=8;hachureAngle=45;strokeWidth=2;" vertex="1" parent="1">
          <mxGeometry x="1121" y="630" width="120" height="60" as="geometry" />
        </mxCell>
        <mxCell id="7RwwjaFvHcJdRhYBYeB7-50" value="混合持久化" style="whiteSpace=wrap;html=1;rounded=1;glass=0;sketch=1;fillWeight=4;hachureGap=8;hachureAngle=45;strokeColor=#6c8ebf;strokeWidth=2;fontFamily=Helvetica;fontSize=24;fontColor=default;fillColor=#dae8fc;" vertex="1" parent="1">
          <mxGeometry x="1020" y="250" width="120" height="60" as="geometry" />
        </mxCell>
        <mxCell id="7RwwjaFvHcJdRhYBYeB7-55" value="" style="edgeStyle=orthogonalEdgeStyle;rounded=0;orthogonalLoop=1;jettySize=auto;html=1;fontSize=22;" edge="1" parent="1" source="7RwwjaFvHcJdRhYBYeB7-51" target="7RwwjaFvHcJdRhYBYeB7-54">
          <mxGeometry relative="1" as="geometry" />
        </mxCell>
        <mxCell id="7RwwjaFvHcJdRhYBYeB7-51" value="生成RDB怎么保证同时处理写请求" style="whiteSpace=wrap;html=1;fontSize=24;fillColor=#dae8fc;strokeColor=#6c8ebf;rounded=1;glass=0;sketch=1;fillWeight=4;hachureGap=8;hachureAngle=45;strokeWidth=2;" vertex="1" parent="1">
          <mxGeometry x="705" y="610" width="210" height="115" as="geometry" />
        </mxCell>
        <mxCell id="7RwwjaFvHcJdRhYBYeB7-57" value="" style="edgeStyle=orthogonalEdgeStyle;rounded=0;orthogonalLoop=1;jettySize=auto;html=1;fontSize=22;" edge="1" parent="1" source="7RwwjaFvHcJdRhYBYeB7-54" target="7RwwjaFvHcJdRhYBYeB7-56">
          <mxGeometry relative="1" as="geometry" />
        </mxCell>
        <mxCell id="7RwwjaFvHcJdRhYBYeB7-54" value="写时复制技术" style="whiteSpace=wrap;html=1;fontSize=24;fillColor=#dae8fc;strokeColor=#6c8ebf;rounded=1;glass=0;sketch=1;fillWeight=4;hachureGap=8;hachureAngle=45;strokeWidth=2;fontStyle=1" vertex="1" parent="1">
          <mxGeometry x="750" y="832.5" width="120" height="60" as="geometry" />
        </mxCell>
        <mxCell id="7RwwjaFvHcJdRhYBYeB7-59" value="" style="edgeStyle=orthogonalEdgeStyle;rounded=0;orthogonalLoop=1;jettySize=auto;html=1;fontSize=22;" edge="1" parent="1" source="7RwwjaFvHcJdRhYBYeB7-56" target="7RwwjaFvHcJdRhYBYeB7-58">
          <mxGeometry relative="1" as="geometry" />
        </mxCell>
        <mxCell id="7RwwjaFvHcJdRhYBYeB7-56" value="bagesave一个子进程" style="whiteSpace=wrap;html=1;fontSize=24;fillColor=#dae8fc;strokeColor=#6c8ebf;rounded=1;glass=0;sketch=1;fillWeight=4;hachureGap=8;hachureAngle=45;strokeWidth=2;fontStyle=1;" vertex="1" parent="1">
          <mxGeometry x="520" y="833.75" width="140" height="57.5" as="geometry" />
        </mxCell>
        <mxCell id="7RwwjaFvHcJdRhYBYeB7-58" value="为什么用子进程而不是子线程" style="whiteSpace=wrap;html=1;fontSize=24;fillColor=#dae8fc;strokeColor=#6c8ebf;rounded=1;glass=0;sketch=1;fillWeight=4;hachureGap=8;hachureAngle=45;strokeWidth=2;fontStyle=1;" vertex="1" parent="1">
          <mxGeometry x="505" y="1030" width="170" height="80" as="geometry" />
        </mxCell>
        <mxCell id="7RwwjaFvHcJdRhYBYeB7-77" style="edgeStyle=orthogonalEdgeStyle;rounded=0;orthogonalLoop=1;jettySize=auto;html=1;entryX=1;entryY=0.75;entryDx=0;entryDy=0;fontSize=22;" edge="1" parent="1" source="7RwwjaFvHcJdRhYBYeB7-61" target="7RwwjaFvHcJdRhYBYeB7-65">
          <mxGeometry relative="1" as="geometry" />
        </mxCell>
        <mxCell id="7RwwjaFvHcJdRhYBYeB7-78" style="edgeStyle=orthogonalEdgeStyle;rounded=0;orthogonalLoop=1;jettySize=auto;html=1;entryX=1;entryY=0.5;entryDx=0;entryDy=0;fontSize=22;" edge="1" parent="1" source="7RwwjaFvHcJdRhYBYeB7-61" target="7RwwjaFvHcJdRhYBYeB7-69">
          <mxGeometry relative="1" as="geometry" />
        </mxCell>
        <mxCell id="7RwwjaFvHcJdRhYBYeB7-61" value="大key对持久化的影响" style="whiteSpace=wrap;html=1;fontSize=24;fillColor=#dae8fc;strokeColor=#6c8ebf;rounded=1;glass=0;sketch=1;fillWeight=4;hachureGap=8;hachureAngle=45;strokeWidth=2;" vertex="1" parent="1">
          <mxGeometry x="360" y="740" width="180" height="75" as="geometry" />
        </mxCell>
        <mxCell id="7RwwjaFvHcJdRhYBYeB7-68" value="" style="edgeStyle=orthogonalEdgeStyle;rounded=0;orthogonalLoop=1;jettySize=auto;html=1;fontSize=22;" edge="1" parent="1" source="7RwwjaFvHcJdRhYBYeB7-65" target="7RwwjaFvHcJdRhYBYeB7-67">
          <mxGeometry relative="1" as="geometry" />
        </mxCell>
        <mxCell id="7RwwjaFvHcJdRhYBYeB7-65" value="对AOF重写影响" style="whiteSpace=wrap;html=1;fontSize=24;fillColor=#dae8fc;strokeColor=#6c8ebf;rounded=1;glass=0;sketch=1;fillWeight=4;hachureGap=8;hachureAngle=45;strokeWidth=2;" vertex="1" parent="1">
          <mxGeometry x="50" y="640" width="180" height="75" as="geometry" />
        </mxCell>
        <mxCell id="7RwwjaFvHcJdRhYBYeB7-67" value="三种策略" style="whiteSpace=wrap;html=1;fontSize=24;fillColor=#dae8fc;strokeColor=#6c8ebf;rounded=1;glass=0;sketch=1;fillWeight=4;hachureGap=8;hachureAngle=45;strokeWidth=2;" vertex="1" parent="1">
          <mxGeometry x="-150" y="647.5" width="120" height="60" as="geometry" />
        </mxCell>
        <mxCell id="7RwwjaFvHcJdRhYBYeB7-72" value="" style="edgeStyle=orthogonalEdgeStyle;rounded=0;orthogonalLoop=1;jettySize=auto;html=1;fontSize=22;" edge="1" parent="1" source="7RwwjaFvHcJdRhYBYeB7-69" target="7RwwjaFvHcJdRhYBYeB7-71">
          <mxGeometry relative="1" as="geometry" />
        </mxCell>
        <mxCell id="7RwwjaFvHcJdRhYBYeB7-69" value="对AOF重写/RBD生成" style="whiteSpace=wrap;html=1;fontSize=24;fillColor=#dae8fc;strokeColor=#6c8ebf;rounded=1;glass=0;sketch=1;fillWeight=4;hachureGap=8;hachureAngle=45;strokeWidth=2;" vertex="1" parent="1">
          <mxGeometry x="50" y="862.19" width="190" height="72.5" as="geometry" />
        </mxCell>
        <mxCell id="7RwwjaFvHcJdRhYBYeB7-74" value="" style="edgeStyle=orthogonalEdgeStyle;rounded=0;orthogonalLoop=1;jettySize=auto;html=1;fontSize=22;" edge="1" parent="1" source="7RwwjaFvHcJdRhYBYeB7-71" target="7RwwjaFvHcJdRhYBYeB7-73">
          <mxGeometry relative="1" as="geometry" />
        </mxCell>
        <mxCell id="7RwwjaFvHcJdRhYBYeB7-76" value="" style="edgeStyle=orthogonalEdgeStyle;rounded=0;orthogonalLoop=1;jettySize=auto;html=1;fontSize=22;" edge="1" parent="1" source="7RwwjaFvHcJdRhYBYeB7-71" target="7RwwjaFvHcJdRhYBYeB7-75">
          <mxGeometry relative="1" as="geometry" />
        </mxCell>
        <mxCell id="7RwwjaFvHcJdRhYBYeB7-71" value="都bagesave子进程" style="whiteSpace=wrap;html=1;fontSize=24;fillColor=#dae8fc;strokeColor=#6c8ebf;rounded=1;glass=0;sketch=1;fillWeight=4;hachureGap=8;hachureAngle=45;strokeWidth=2;" vertex="1" parent="1">
          <mxGeometry x="-220" y="872.19" width="170" height="53.75" as="geometry" />
        </mxCell>
        <mxCell id="7RwwjaFvHcJdRhYBYeB7-73" value="页表复制" style="whiteSpace=wrap;html=1;fontSize=24;fillColor=#dae8fc;strokeColor=#6c8ebf;rounded=1;glass=0;sketch=1;fillWeight=4;hachureGap=8;hachureAngle=45;strokeWidth=2;" vertex="1" parent="1">
          <mxGeometry x="-300" y="1002.815" width="120" height="60" as="geometry" />
        </mxCell>
        <mxCell id="7RwwjaFvHcJdRhYBYeB7-75" value="写时复制" style="whiteSpace=wrap;html=1;fontSize=24;fillColor=#dae8fc;strokeColor=#6c8ebf;rounded=1;glass=0;sketch=1;fillWeight=4;hachureGap=8;hachureAngle=45;strokeWidth=2;" vertex="1" parent="1">
          <mxGeometry x="-110" y="1002.815" width="120" height="60" as="geometry" />
        </mxCell>
      </root>
    </mxGraphModel>
  </diagram>
</mxfile>
